<svg width="390" height="232" viewBox="0 0 390 232" fill="none"
    xmlns="http://www.w3.org/2000/svg">
    <g filter="url(#filter0_f_13_992)">
        <path d="M150.97 145V100.018H157.366V145H150.97ZM175.541 145.918C173.093 145.918 171.043 145.469 169.39 144.572C167.738 143.654 166.483 142.45 165.627 140.961C164.79 139.451 164.372 137.799 164.372 136.004C164.372 134.331 164.668 132.862 165.259 131.597C165.851 130.332 166.728 129.261 167.891 128.384C169.054 127.487 170.482 126.762 172.175 126.212C173.644 125.783 175.306 125.406 177.163 125.079C179.019 124.753 180.967 124.447 183.007 124.161C185.068 123.876 187.108 123.59 189.127 123.305L186.802 124.59C186.843 121.999 186.292 120.081 185.149 118.837C184.027 117.572 182.089 116.94 179.335 116.94C177.601 116.94 176.01 117.348 174.562 118.164C173.113 118.959 172.104 120.285 171.532 122.142L165.565 120.306C166.381 117.47 167.932 115.216 170.217 113.543C172.522 111.87 175.582 111.034 179.397 111.034C182.355 111.034 184.925 111.544 187.108 112.564C189.311 113.564 190.923 115.155 191.943 117.338C192.473 118.419 192.799 119.561 192.922 120.765C193.044 121.968 193.105 123.264 193.105 124.651V145H187.444V137.442L188.546 138.421C187.179 140.951 185.435 142.838 183.313 144.082C181.212 145.306 178.621 145.918 175.541 145.918ZM176.673 140.685C178.489 140.685 180.049 140.369 181.355 139.737C182.661 139.084 183.711 138.258 184.507 137.258C185.302 136.259 185.823 135.218 186.067 134.137C186.414 133.158 186.608 132.056 186.649 130.832C186.71 129.608 186.741 128.629 186.741 127.895L188.821 128.66C186.802 128.966 184.966 129.241 183.313 129.486C181.661 129.731 180.162 129.975 178.815 130.22C177.489 130.445 176.306 130.72 175.266 131.046C174.388 131.352 173.603 131.72 172.909 132.148C172.236 132.576 171.696 133.097 171.288 133.709C170.9 134.321 170.706 135.065 170.706 135.942C170.706 136.799 170.92 137.595 171.349 138.329C171.777 139.043 172.43 139.614 173.307 140.043C174.184 140.471 175.306 140.685 176.673 140.685ZM213.832 145.918C210.752 145.918 208.089 145.153 205.845 143.623C203.622 142.093 201.898 140.012 200.674 137.381C199.47 134.729 198.869 131.75 198.869 128.445C198.869 125.12 199.481 122.152 200.705 119.541C201.929 116.909 203.663 114.839 205.907 113.329C208.171 111.799 210.854 111.034 213.954 111.034C217.076 111.034 219.697 111.799 221.819 113.329C223.961 114.839 225.572 116.909 226.653 119.541C227.755 122.172 228.306 125.141 228.306 128.445C228.306 131.75 227.755 134.718 226.653 137.35C225.552 139.982 223.93 142.073 221.788 143.623C219.646 145.153 216.994 145.918 213.832 145.918ZM214.719 140.135C216.821 140.135 218.534 139.635 219.86 138.635C221.186 137.636 222.155 136.259 222.767 134.504C223.379 132.75 223.685 130.73 223.685 128.445C223.685 126.161 223.369 124.141 222.737 122.387C222.125 120.632 221.166 119.265 219.86 118.286C218.575 117.307 216.933 116.817 214.934 116.817C212.812 116.817 211.068 117.338 209.701 118.378C208.334 119.418 207.314 120.816 206.641 122.57C205.988 124.325 205.662 126.283 205.662 128.445C205.662 130.628 205.988 132.607 206.641 134.382C207.314 136.136 208.314 137.534 209.64 138.574C210.986 139.614 212.679 140.135 214.719 140.135ZM223.685 145V121.224H222.951V100.936H229.377V145H223.685ZM238.204 106.536V100.324H244.599V106.536H238.204ZM238.204 145V111.952H244.599V145H238.204ZM265.896 145.887C263.611 145.887 261.693 145.52 260.143 144.786C258.593 144.051 257.328 143.093 256.349 141.909C255.39 140.706 254.655 139.4 254.145 137.993C253.635 136.585 253.289 135.208 253.105 133.862C252.921 132.515 252.83 131.332 252.83 130.312V111.952H259.317V128.201C259.317 129.486 259.419 130.812 259.623 132.179C259.847 133.525 260.255 134.78 260.847 135.942C261.459 137.105 262.305 138.044 263.387 138.758C264.488 139.472 265.916 139.829 267.671 139.829C268.813 139.829 269.894 139.645 270.914 139.278C271.934 138.89 272.822 138.278 273.576 137.442C274.352 136.605 274.953 135.504 275.382 134.137C275.831 132.77 276.055 131.108 276.055 129.149L280.033 130.649C280.033 133.647 279.472 136.299 278.35 138.605C277.228 140.889 275.616 142.674 273.515 143.96C271.414 145.245 268.874 145.887 265.896 145.887ZM276.82 145V135.453H276.055V111.952H282.512V145H276.82ZM303.385 145.887C299.366 145.887 296.092 145 293.562 143.225C291.033 141.45 289.482 138.951 288.911 135.728L295.459 134.718C295.867 136.432 296.806 137.789 298.275 138.788C299.764 139.767 301.61 140.257 303.813 140.257C305.812 140.257 307.373 139.849 308.495 139.033C309.637 138.217 310.209 137.095 310.209 135.667C310.209 134.831 310.005 134.157 309.597 133.647C309.209 133.117 308.383 132.617 307.118 132.148C305.853 131.679 303.925 131.097 301.335 130.404C298.499 129.669 296.245 128.884 294.572 128.048C292.92 127.191 291.736 126.201 291.022 125.079C290.329 123.937 289.982 122.56 289.982 120.948C289.982 118.949 290.512 117.205 291.573 115.716C292.634 114.227 294.123 113.074 296.041 112.258C297.979 111.442 300.243 111.034 302.834 111.034C305.364 111.034 307.618 111.432 309.597 112.227C311.575 113.023 313.177 114.155 314.401 115.624C315.625 117.072 316.359 118.776 316.604 120.734L310.056 121.928C309.831 120.336 309.087 119.082 307.822 118.164C306.557 117.246 304.915 116.746 302.895 116.664C300.957 116.583 299.386 116.909 298.183 117.644C296.979 118.358 296.377 119.347 296.377 120.612C296.377 121.346 296.602 121.968 297.051 122.478C297.52 122.988 298.417 123.478 299.743 123.947C301.069 124.416 303.028 124.977 305.619 125.63C308.393 126.344 310.596 127.14 312.228 128.017C313.86 128.874 315.023 129.904 315.717 131.108C316.431 132.291 316.788 133.729 316.788 135.422C316.788 138.686 315.594 141.246 313.207 143.103C310.841 144.959 307.567 145.887 303.385 145.887Z" fill="url(#paint0_linear_13_992)"/>
        <path d="M143.76 119.593H143.749L143.762 119.414H119.19V112.116L108.349 109.347C111.269 106.802 115.074 105.242 119.238 105.192L119.442 105.244V105.187C124.46 105.187 128.969 107.383 132.064 110.857L140.33 109.367C136.038 102.345 128.281 97.647 119.442 97.647C119.371 97.647 119.301 97.6495 119.23 97.6495L70.2522 85.1429V92.68L105.85 101.77C103.625 103.26 101.658 105.104 100.032 107.219L70 99.5489V107.086L96.4182 113.832C95.6541 115.967 95.18 118.241 95.0463 120.605L70.0025 114.209V121.746L95.8508 128.346C96.3198 130.072 96.973 131.72 97.7925 133.273L70.2547 126.241V133.778L107.708 143.342C111.193 145.252 115.195 146.34 119.445 146.34C132.921 146.34 143.883 135.418 143.883 121.992C143.878 121.183 143.838 120.382 143.76 119.593ZM102.566 121.995C102.566 119.776 103.005 117.658 103.792 115.719L119.187 119.651V126.773L102.579 122.532C102.574 122.354 102.566 122.175 102.566 121.995ZM119.44 138.805L111.34 136.737C108.732 135.31 106.541 133.217 105.002 130.687L119.187 134.31V126.949L135.508 127.12C133.329 133.891 126.952 138.805 119.44 138.805Z" fill="url(#paint1_linear_13_992)"/>
    </g>
    <path d="M150.97 145V100.018H157.366V145H150.97ZM175.541 145.918C173.093 145.918 171.043 145.469 169.39 144.572C167.738 143.654 166.483 142.45 165.627 140.961C164.79 139.451 164.372 137.799 164.372 136.004C164.372 134.331 164.668 132.862 165.259 131.597C165.851 130.332 166.728 129.261 167.891 128.384C169.054 127.487 170.482 126.762 172.175 126.212C173.644 125.783 175.306 125.406 177.163 125.079C179.019 124.753 180.967 124.447 183.007 124.161C185.068 123.876 187.108 123.59 189.127 123.305L186.802 124.59C186.843 121.999 186.292 120.081 185.149 118.837C184.027 117.572 182.089 116.94 179.335 116.94C177.601 116.94 176.01 117.348 174.562 118.164C173.113 118.959 172.104 120.285 171.532 122.142L165.565 120.306C166.381 117.47 167.932 115.216 170.217 113.543C172.522 111.87 175.582 111.034 179.397 111.034C182.355 111.034 184.925 111.544 187.108 112.564C189.311 113.564 190.923 115.155 191.943 117.338C192.473 118.419 192.799 119.561 192.922 120.765C193.044 121.968 193.105 123.264 193.105 124.651V145H187.444V137.442L188.546 138.421C187.179 140.951 185.435 142.838 183.313 144.082C181.212 145.306 178.621 145.918 175.541 145.918ZM176.673 140.685C178.489 140.685 180.049 140.369 181.355 139.737C182.661 139.084 183.711 138.258 184.507 137.258C185.302 136.259 185.823 135.218 186.067 134.137C186.414 133.158 186.608 132.056 186.649 130.832C186.71 129.608 186.741 128.629 186.741 127.895L188.821 128.66C186.802 128.966 184.966 129.241 183.313 129.486C181.661 129.731 180.162 129.975 178.815 130.22C177.489 130.445 176.306 130.72 175.266 131.046C174.388 131.352 173.603 131.72 172.909 132.148C172.236 132.576 171.696 133.097 171.288 133.709C170.9 134.321 170.706 135.065 170.706 135.942C170.706 136.799 170.92 137.595 171.349 138.329C171.777 139.043 172.43 139.614 173.307 140.043C174.184 140.471 175.306 140.685 176.673 140.685ZM213.832 145.918C210.752 145.918 208.089 145.153 205.845 143.623C203.622 142.093 201.898 140.012 200.674 137.381C199.47 134.729 198.869 131.75 198.869 128.445C198.869 125.12 199.481 122.152 200.705 119.541C201.929 116.909 203.663 114.839 205.907 113.329C208.171 111.799 210.854 111.034 213.954 111.034C217.076 111.034 219.697 111.799 221.819 113.329C223.961 114.839 225.572 116.909 226.653 119.541C227.755 122.172 228.306 125.141 228.306 128.445C228.306 131.75 227.755 134.718 226.653 137.35C225.552 139.982 223.93 142.073 221.788 143.623C219.646 145.153 216.994 145.918 213.832 145.918ZM214.719 140.135C216.821 140.135 218.534 139.635 219.86 138.635C221.186 137.636 222.155 136.259 222.767 134.504C223.379 132.75 223.685 130.73 223.685 128.445C223.685 126.161 223.369 124.141 222.737 122.387C222.125 120.632 221.166 119.265 219.86 118.286C218.575 117.307 216.933 116.817 214.934 116.817C212.812 116.817 211.068 117.338 209.701 118.378C208.334 119.418 207.314 120.816 206.641 122.57C205.988 124.325 205.662 126.283 205.662 128.445C205.662 130.628 205.988 132.607 206.641 134.382C207.314 136.136 208.314 137.534 209.64 138.574C210.986 139.614 212.679 140.135 214.719 140.135ZM223.685 145V121.224H222.951V100.936H229.377V145H223.685ZM238.204 106.536V100.324H244.599V106.536H238.204ZM238.204 145V111.952H244.599V145H238.204ZM265.896 145.887C263.611 145.887 261.693 145.52 260.143 144.786C258.593 144.051 257.328 143.093 256.349 141.909C255.39 140.706 254.655 139.4 254.145 137.993C253.635 136.585 253.289 135.208 253.105 133.862C252.921 132.515 252.83 131.332 252.83 130.312V111.952H259.317V128.201C259.317 129.486 259.419 130.812 259.623 132.179C259.847 133.525 260.255 134.78 260.847 135.942C261.459 137.105 262.305 138.044 263.387 138.758C264.488 139.472 265.916 139.829 267.671 139.829C268.813 139.829 269.894 139.645 270.914 139.278C271.934 138.89 272.822 138.278 273.576 137.442C274.352 136.605 274.953 135.504 275.382 134.137C275.831 132.77 276.055 131.108 276.055 129.149L280.033 130.649C280.033 133.647 279.472 136.299 278.35 138.605C277.228 140.889 275.616 142.674 273.515 143.96C271.414 145.245 268.874 145.887 265.896 145.887ZM276.82 145V135.453H276.055V111.952H282.512V145H276.82ZM303.385 145.887C299.366 145.887 296.092 145 293.562 143.225C291.033 141.45 289.482 138.951 288.911 135.728L295.459 134.718C295.867 136.432 296.806 137.789 298.275 138.788C299.764 139.767 301.61 140.257 303.813 140.257C305.812 140.257 307.373 139.849 308.495 139.033C309.637 138.217 310.209 137.095 310.209 135.667C310.209 134.831 310.005 134.157 309.597 133.647C309.209 133.117 308.383 132.617 307.118 132.148C305.853 131.679 303.925 131.097 301.335 130.404C298.499 129.669 296.245 128.884 294.572 128.048C292.92 127.191 291.736 126.201 291.022 125.079C290.329 123.937 289.982 122.56 289.982 120.948C289.982 118.949 290.512 117.205 291.573 115.716C292.634 114.227 294.123 113.074 296.041 112.258C297.979 111.442 300.243 111.034 302.834 111.034C305.364 111.034 307.618 111.432 309.597 112.227C311.575 113.023 313.177 114.155 314.401 115.624C315.625 117.072 316.359 118.776 316.604 120.734L310.056 121.928C309.831 120.336 309.087 119.082 307.822 118.164C306.557 117.246 304.915 116.746 302.895 116.664C300.957 116.583 299.386 116.909 298.183 117.644C296.979 118.358 296.377 119.347 296.377 120.612C296.377 121.346 296.602 121.968 297.051 122.478C297.52 122.988 298.417 123.478 299.743 123.947C301.069 124.416 303.028 124.977 305.619 125.63C308.393 126.344 310.596 127.14 312.228 128.017C313.86 128.874 315.023 129.904 315.717 131.108C316.431 132.291 316.788 133.729 316.788 135.422C316.788 138.686 315.594 141.246 313.207 143.103C310.841 144.959 307.567 145.887 303.385 145.887Z" fill="url(#paint2_linear_13_992)"/>
    <path d="M143.76 119.593H143.749L143.762 119.414H119.19V112.116L108.349 109.347C111.269 106.802 115.074 105.242 119.238 105.192L119.442 105.244V105.187C124.46 105.187 128.969 107.383 132.064 110.857L140.33 109.367C136.038 102.345 128.281 97.647 119.442 97.647C119.371 97.647 119.301 97.6495 119.23 97.6495L70.2522 85.1429V92.68L105.85 101.77C103.625 103.26 101.658 105.104 100.032 107.219L70 99.5489V107.086L96.4182 113.832C95.6541 115.967 95.18 118.241 95.0463 120.605L70.0025 114.209V121.746L95.8508 128.346C96.3198 130.072 96.973 131.72 97.7925 133.273L70.2547 126.241V133.778L107.708 143.342C111.193 145.252 115.195 146.34 119.445 146.34C132.921 146.34 143.883 135.418 143.883 121.992C143.878 121.183 143.838 120.382 143.76 119.593ZM102.566 121.995C102.566 119.776 103.005 117.658 103.792 115.719L119.187 119.651V126.773L102.579 122.532C102.574 122.354 102.566 122.175 102.566 121.995ZM119.44 138.805L111.34 136.737C108.732 135.31 106.541 133.217 105.002 130.687L119.187 134.31V126.949L135.508 127.12C133.329 133.891 126.952 138.805 119.44 138.805Z" fill="url(#paint3_linear_13_992)"/>
    <defs>
        <filter id="filter0_f_13_992" x="-15" y="0.142851" width="416.788" height="231.197" filterUnits="userSpaceOnUse" color-interpolation-filters="sRGB">
            <feFlood flood-opacity="0" result="BackgroundImageFix"/>
            <feBlend mode="normal" in="SourceGraphic" in2="BackgroundImageFix" result="shape"/>
            <feGaussianBlur stdDeviation="42.5" result="effect1_foregroundBlur_13_992"/>
        </filter>
        <linearGradient id="paint0_linear_13_992" x1="92.1555" y1="90.3721" x2="320.69" y2="152.732" gradientUnits="userSpaceOnUse">
            <stop stop-color="#007BE3"/>
            <stop offset="1" stop-color="#00CBDC"/>
        </linearGradient>
        <linearGradient id="paint1_linear_13_992" x1="61.4089" y1="85.1429" x2="143.749" y2="146.52" gradientUnits="userSpaceOnUse">
            <stop stop-color="#007BE3"/>
            <stop offset="1" stop-color="#0093E1"/>
        </linearGradient>
        <linearGradient id="paint2_linear_13_992" x1="116.294" y1="94.6939" x2="320.687" y2="152.754" gradientUnits="userSpaceOnUse">
            <stop stop-color="#008BE2"/>
            <stop offset="0.73" stop-color="#00CBDC"/>
        </linearGradient>
        <linearGradient id="paint3_linear_13_992" x1="61.4089" y1="85.1429" x2="155.86" y2="119.567" gradientUnits="userSpaceOnUse">
            <stop stop-color="#007BE3"/>
            <stop offset="1" stop-color="#009DE0"/>
        </linearGradient>
    </defs>
</svg>
