<svg width="66" height="65" viewBox="0 0 66 65" fill="none"
    xmlns="http://www.w3.org/2000/svg">
    <rect x="0.627441" width="64.6274" height="65" rx="32.3137" fill="#101835"/>
    <g clip-path="url(#clip0_647_889)">
        <path d="M40.5886 32.21H40.5853L40.5895 32.1514H32.5457V34.6279L37.8884 34.684C37.1743 36.9088 35.0866 38.5235 32.6283 38.5235C29.5821 38.5235 27.1048 36.0453 27.1048 33C27.1048 29.9547 29.5821 27.4765 32.6274 27.4765C34.2702 27.4765 35.7462 28.198 36.7591 29.3397L39.4651 28.8502C38.0601 26.5437 35.5208 25 32.6274 25C28.2159 25 24.6274 28.5885 24.6274 33C24.6274 37.4115 28.2159 41 32.6274 41C37.039 41 40.6274 37.4115 40.6274 33C40.6274 32.7334 40.6142 32.47 40.5886 32.21Z" fill="white"/>
    </g>
    <path d="M49.8121 23.5934C49.812 23.7921 49.733 23.9827 49.5924 24.1233C49.4519 24.2638 49.2613 24.3428 49.0626 24.3429L43.0522 24.3429C42.8534 24.3428 42.6628 24.2638 42.5223 24.1233C42.3818 23.9827 42.3028 23.7921 42.3026 23.5934L42.3026 17.583C42.3096 17.3888 42.3916 17.2048 42.5314 17.0698C42.6711 16.9348 42.8578 16.8592 43.0522 16.8589C43.2465 16.8592 43.4332 16.9348 43.573 17.0698C43.7127 17.2048 43.7947 17.3888 43.8017 17.583L43.8017 21.7832L49.0626 16.5223C49.2032 16.3817 49.394 16.3027 49.5929 16.3027C49.7918 16.3027 49.9826 16.3817 50.1232 16.5223C50.2639 16.663 50.3429 16.8537 50.3429 17.0527C50.3429 17.2516 50.2639 17.4423 50.1232 17.583L44.8624 22.8439L49.0626 22.8439C49.2613 22.844 49.4519 22.923 49.5924 23.0635C49.733 23.2041 49.812 23.3946 49.8121 23.5934Z" fill="white"/>
    <path fill-rule="evenodd" clip-rule="evenodd" d="M46.2486 29.7514C46.4963 30.7939 46.6274 31.8817 46.6274 33C46.6274 40.732 40.3594 47 32.6274 47C24.8955 47 18.6274 40.732 18.6274 33C18.6274 25.268 24.8955 19 32.6274 19C33.9589 19 35.2469 19.1859 36.467 19.533L37.2683 18.7317C35.8069 18.2567 34.2472 18 32.6274 18C24.3432 18 17.6274 24.7157 17.6274 33C17.6274 41.2843 24.3432 48 32.6274 48C40.9117 48 47.6274 41.2843 47.6274 33C47.6274 31.5897 47.4328 30.2249 47.069 28.931L46.2486 29.7514Z" fill="white"/>
    <defs>
        <clipPath id="clip0_647_889">
            <rect width="16" height="16" fill="white" transform="translate(24.6274 25)"/>
        </clipPath>
    </defs>
</svg>
