<svg width="65" height="65" viewBox="0 0 65 65" fill="none"
    xmlns="http://www.w3.org/2000/svg">
    <rect width="64.6274" height="65" rx="32.3137" fill="#101835"/>
    <g clip-path="url(#clip0_647_878)">
        <path d="M39.9612 32.21H39.9579L39.962 32.1514H31.9183V34.6279L37.261 34.684C36.5469 36.9088 34.4592 38.5235 32.0008 38.5235C28.9547 38.5235 26.4773 36.0453 26.4773 33C26.4773 29.9547 28.9547 27.4765 32 27.4765C33.6428 27.4765 35.1188 28.198 36.1317 29.3397L38.8377 28.8502C37.4327 26.5437 34.8934 25 32 25C27.5885 25 24 28.5885 24 33C24 37.4115 27.5885 41 32 41C36.4115 41 40 37.4115 40 33C40 32.7334 39.9868 32.47 39.9612 32.21Z" fill="white"/>
    </g>
    <g clip-path="url(#clip1_647_878)">
        <path d="M41.8461 17.0649C41.8462 16.8662 41.9252 16.6756 42.0658 16.5351C42.2063 16.3945 42.3969 16.3155 42.5956 16.3154H48.606C48.8048 16.3155 48.9954 16.3945 49.1359 16.5351C49.2764 16.6756 49.3554 16.8662 49.3556 17.0649L49.3556 23.0753C49.3486 23.2696 49.2666 23.4535 49.1268 23.5885C48.9871 23.7236 48.8004 23.7992 48.606 23.7994C48.4117 23.7992 48.225 23.7236 48.0852 23.5885C47.9455 23.4535 47.8635 23.2696 47.8565 23.0753V18.8751L42.5956 24.136C42.455 24.2767 42.2642 24.3557 42.0653 24.3557C41.8664 24.3557 41.6756 24.2767 41.535 24.136C41.3943 23.9953 41.3153 23.8046 41.3153 23.6057C41.3153 23.4068 41.3943 23.216 41.535 23.0753L46.7958 17.8145L42.5956 17.8145C42.3969 17.8143 42.2063 17.7353 42.0658 17.5948C41.9252 17.4543 41.8462 17.2637 41.8461 17.0649Z" fill="white"/>
    </g>
    <path fill-rule="evenodd" clip-rule="evenodd" d="M45.6211 29.7514C45.8689 30.7939 46 31.8817 46 33C46 40.732 39.732 47 32 47C24.268 47 18 40.732 18 33C18 25.268 24.268 19 32 19C33.3314 19 34.6194 19.1859 35.8395 19.533L36.6408 18.7317C35.1795 18.2567 33.6197 18 32 18C23.7157 18 17 24.7157 17 33C17 41.2843 23.7157 48 32 48C40.2843 48 47 41.2843 47 33C47 31.5897 46.8054 30.2249 46.4415 28.931L45.6211 29.7514Z" fill="white"/>
    <defs>
        <clipPath id="clip0_647_878">
            <rect width="16" height="16" fill="white" transform="translate(24 25)"/>
        </clipPath>
        <clipPath id="clip1_647_878">
            <rect width="16" height="16" fill="white" transform="translate(43.3137 10) rotate(45)"/>
        </clipPath>
    </defs>
</svg>
